# xmcd
#
# Track frame offsets: 
#        150
#        10873
#        22007
#        31375
#        40699
#        48341
#        58736
#        67021
#        76275
#        86550
#        97568
#        108034
#        116844
#        129660
#        139470
#        156635
#        168105
#        179969
#        190949
#        199595
#
# Disc length: 2783 seconds
#
# Revision: 0
# Processed by: cddbd v1.5.2PL0 Copyright (c) Steve Scherf et al.
# Submitted via: ExactAudioCopy v0.95b4
#
DISCID=130add14
DTITLE=Fats Domino - Fats Domino Collection
DYEAR=2002
DGENRE=Blues
TTITLE0=Blueberry Hill
TTITLE1=Ain't that a shame
TTITLE2=I'm walking
TTITLE3=I'm in love again
TTITLE4=Whole lotta loving
TTITLE5=Blue Monday
TTITLE6=Honey Chile
TTITLE7=Be my guest
TTITLE8=Country boy
TTITLE9=Jambolaya
TTITLE10=All by myself
TTITLE11=I hear you knocking
TTITLE12=One night
TTITLE13=Your cheating heart
TTITLE14=You always hurt the one you love
TTITLE15=Going to the river
TTITLE16=The fat man
TTITLE17=When my dreamboat comes home
TTITLE18=Valley of tears
TTITLE19=Let the four winds blow
EXTD=
EXTT0=
EXTT1=
EXTT2=
EXTT3=
EXTT4=
EXTT5=
EXTT6=
EXTT7=
EXTT8=
EXTT9=
EXTT10=
EXTT11=
EXTT12=
EXTT13=
EXTT14=
EXTT15=
EXTT16=
EXTT17=
EXTT18=
EXTT19=
PLAYORDER=
